<svg id="Ebene_1" data-name="Ebene 1" xmlns="http://www.w3.org/2000/svg" viewBox="0 0 595.28 919.15"><defs><style>.cls-1{fill:#fff;}</style></defs><path class="cls-1" d="M90.51,916.75V-2.75H529.28v919.5Zm51.81-808.58a47.13,47.13,0,0,1,4.52,3.62c4.22,4.32,8.35,8.71,12.47,13.13,5.39,5.78,10.95,11.44,16,17.48,3.37,4,6,8.66,9,12.94,4.48,6.28,9.54,12.2,13.47,18.8,4.24,7.11,7.37,14.86,11.15,22.26,5.07,9.94,9.6,20,10.09,31.44a7.9,7.9,0,0,0,.25,1.25c1.18,5.74,2.87,11.44,3.44,17.25,1.28,13.14,2.48,26.32,2.84,39.51.3,11.26-.48,22.57-1.05,33.85-.23,4.61-1.17,9.19-1.75,13.79-.34,2.61-.43,5.27-.92,7.86-.92,4.85-2.18,9.64-3,14.5-1.68,9.43-1.31,19.18-4.35,28.42-.52,1.56-.28,3.36-.48,5-.22,1.88-.5,3.76-.82,5.63-.68,3.94-1.35,7.88-2.13,11.8-.9,4.44-1.92,8.86-2.88,13.3-.46,2.13-1.07,4.26-1.32,6.42-.52,4.61-.36,9.35-1.36,13.84-1.6,7.19-4.25,14.14-5.84,21.33-1.75,7.92-2.81,16-4.18,24-.5,2.91-.63,5.95-1.6,8.7-2.59,7.36-5.23,14.63-6.59,22.42-1.64,9.44-4.49,18.68-6.27,28.11-1.1,5.78-.73,11.84-1.8,17.62a235.65,235.65,0,0,0-3.58,41.66c0,7.27-1.27,14.54-1.12,21.79.21,9.8,1.23,19.59,1.93,29.38a27.14,27.14,0,0,0,.58,5.35c1.8,6.48,3.2,13.17,5.82,19.32,3.72,8.71,8.27,17.08,12.69,25.48a68.31,68.31,0,0,0,5.84,8.65Q207,721.63,212.76,729a23.24,23.24,0,0,0,4.32,4c3,2.27,6.52,4,9.24,6.62,4.89,4.65,9.54,9.59,14,14.7,7.31,8.47,14.55,17,21.46,25.82,4.81,6.13,9.2,12.62,13.41,19.18a72.5,72.5,0,0,1,6.26,12.33c1.78,4.48,2.58,9.36,4.36,13.84a75.39,75.39,0,0,1,5.14,27.88c0,9-.86,8.91,8.38,5.2q13.38-5.37,26.68-10.93a103.68,103.68,0,0,0,10.35-4.69c5.73-3.15,11.21-6.76,16.95-9.89,9.55-5.18,19.36-9.9,28.79-15.28,5.37-3.07,10.14-7.18,15.31-10.62s10.65-6.45,15.74-10a54.67,54.67,0,0,0,8.66-7.72c2-2.16,2.41-4.89,1.36-8a22,22,0,0,1-1.27-8c.69-13.93-5.85-25.54-11.86-37.24-3.71-7.2-8.13-14-12.38-21-2.87-4.65-5.14-9.69-9.65-13.24a151.77,151.77,0,0,1-12.8-11.24A137,137,0,0,1,355,664.84c-.93-1.51-1.27-3.4-2.26-4.85-7.84-11.41-9.38-24.78-11.16-37.86-.92-6.78.44-13.89.94-20.83.19-2.51,1.17-5,1.28-7.48.53-12.36.86-24.73,1.32-37.09.22-5.85.79-11.63,4.16-16.72a5.75,5.75,0,0,0,.77-2.07c.83-4.23,1.57-8.48,2.42-12.71,2.41-12,4.93-24,7.25-36,.84-4.35.94-8.85,1.94-13.15.76-3.22,2.7-6.16,3.63-9.36,2.1-7.17,3.84-14.45,5.84-21.65.64-2.33,1.92-4.51,2.39-6.87,1.12-5.69,2-11.44,2.87-17.18.68-4.35,1.13-8.74,1.88-13.08s1-8.8,2.79-12.62a20,20,0,0,0,2.15-9.34c-.6-14.9,3.37-29.09,6.49-43.43q2.93-13.47,5.52-27c1.57-8.08,3-16.2,4.37-24.31a79.44,79.44,0,0,0,1.22-9.69c.39-8.53.63-17.08.82-25.62.11-5.08.85-10.35-.2-15.2-1.83-8.44-4.36-16.65-4.86-25.41-.35-6.16-2.11-12.24-3.29-18.34-1-5.08-1.66-10.26-3.13-15.2q-4.81-16.25-10.34-32.27c-2.19-6.35-3.79-12.93-8.09-18.49a77.56,77.56,0,0,1-8-13.25c-2.65-5.39-4.36-11.24-7-16.63-6.53-13.25-17.12-23.5-26.25-34.83a16.53,16.53,0,0,0-2.29-1.69c-3.67-3.14-7.3-6.33-11-9.46a17.24,17.24,0,0,0-3.79-2.81c-5-2.25-10-4.44-15.15-6.35-1.46-.55-25.65,3.07-28.09,4.08-8.66,3.56-17.18,7.46-25.68,11.4-6.41,3-27,13.13-30.85,15.32-4.11,2.36-8,5.12-12.07,7.53-2.3,1.35-5.12,1.82-6.07,5-.26.89-9.29,4.21-12.51,5.48-6.39,2.53-12.67,5.36-19.09,7.8A110,110,0,0,1,152.36,106C149.12,106.87,145.82,107.43,142.32,108.17Z"/><path d="M152.36,106a110,110,0,0,0,11.48-3.46c6.42-2.44,12.7-5.27,19.09-7.8,3.22-1.27,16.28-9.11,18.58-10.46,4.08-2.41,8-5.17,12.07-7.53,3.83-2.19,24.44-12.35,30.85-15.32,8.5-3.94,17-7.84,25.68-11.4,2.44-1,26.63-4.63,28.09-4.08,5.13,1.91,10.16,4.1,15.15,6.35a17.24,17.24,0,0,1,3.79,2.81c3.67,3.13,7.3,6.32,11,9.46a16.53,16.53,0,0,1,2.29,1.69c9.13,11.33,19.72,21.58,26.25,34.83,2.66,5.39,4.37,11.24,7,16.63a77.56,77.56,0,0,0,8,13.25c4.3,5.56,5.9,12.14,8.09,18.49q5.52,16,10.34,32.27c1.47,4.94,2.15,10.12,3.13,15.2,1.18,6.1,2.94,12.18,3.29,18.34.5,8.76,3.57,72.71,3,75.92-1.39,8.11-7.94,42.34-9.89,51.32-3.12,14.34-10.7,61.13-11.43,65.39s-1.2,8.73-1.88,13.08c-.89,5.74-1.75,11.49-2.87,17.18-.47,2.36-1.75,4.54-2.39,6.87-2,7.2-3.74,14.48-5.84,21.65-.93,3.2-2.87,6.14-3.63,9.36-1,4.3-1.1,8.8-1.94,13.15-2.32,12-4.84,24-7.25,36-.85,4.23-1.59,8.48-2.42,12.71-.14.72-7.34,60.85-7.53,63.36-.5,6.94-1.86,14.05-.94,20.83,1.78,13.08,3.32,26.45,11.16,37.86,1,1.45,1.33,3.34,2.26,4.85,5.78,9.37,51.31,64.13,55,71.33,6,11.7,12.55,23.31,11.86,37.24a22,22,0,0,0,1.27,8c1.05,3.07.62,5.8-1.36,8a54.67,54.67,0,0,1-8.66,7.72c-5.09,3.57-10.56,6.58-15.74,10s-9.94,7.55-15.31,10.62c-9.43,5.38-19.24,10.1-28.79,15.28-5.74,3.13-11.22,6.74-16.95,9.89A103.68,103.68,0,0,1,326,847.61q-13.32,5.53-26.68,10.93c-9.24,3.71-8.33,3.77-8.38-5.2a75.39,75.39,0,0,0-5.14-27.88c-1.78-4.48-2.58-9.36-4.36-13.84a72.5,72.5,0,0,0-6.26-12.33c-4.21-6.56-8.6-13-13.41-19.18-6.91-8.8-14.15-17.35-21.46-25.82-4.42-5.11-9.07-10-14-14.7-2.72-2.58-6.2-4.35-9.24-6.62a23.24,23.24,0,0,1-4.32-4q-5.82-7.31-11.38-14.84a68.31,68.31,0,0,1-5.84-8.65c-4.42-8.4-9-16.77-12.69-25.48-2.62-6.15-4-12.84-5.82-19.32a27.14,27.14,0,0,1-.58-5.35c-.7-9.79-1.72-19.58-1.93-29.38-.15-7.25,1.08-14.52,1.12-21.79a235.65,235.65,0,0,1,3.58-41.66c1.07-5.78.7-11.84,1.8-17.62,1.78-9.43,4.63-18.67,6.27-28.11,1.36-7.79,4-15.06,6.59-22.42,1-2.75,1.1-5.79,1.6-8.7,1.37-8,2.43-16.08,4.18-24,1.59-7.19,4.24-14.14,5.84-21.33,1-4.49.84-9.23,1.36-13.84.25-2.16.86-4.29,1.32-6.42,1-4.44,2-8.86,2.88-13.3.78-3.92,1.45-7.86,2.13-11.8.32-1.87.6-3.75.82-5.63.2-1.68,0-3.48.48-5,3-9.24,2.67-19,4.35-28.42.87-4.86,2.13-9.65,3-14.5.49-2.59.58-5.25.92-7.86.58-4.6,1.52-9.18,1.75-13.79.57-11.28,1.35-22.59,1.05-33.85-.36-13.19-1.56-26.37-2.84-39.51-.57-5.81-2.26-11.51-3.44-17.25a7.9,7.9,0,0,1-.25-1.25c-.49-11.41-5-21.5-10.09-31.44-3.78-7.4-6.91-15.15-11.15-22.26-3.93-6.6-9-12.52-13.47-18.8-3.05-4.28-5.66-8.93-9-12.94-5.08-6-10.64-11.7-16-17.48-4.12-4.42-8.25-8.81-12.47-13.13C145.63,110.54,149.12,106.87,152.36,106Zm162.41,73.59c3.83,4.07-4.53,11.07-5.47,11.31-3.11.8-6.16,2.35-9.29,2.51-5.24.28-9.54,3.17-13.75,5.27-8.88,4.43-17.36,9.52-27.25,11.52a32.81,32.81,0,0,0-6.49,1.86c-7.14,3.1-14,7.15-21.38,9.33-4.8,1.41-5,3.59-4.64,7.41.48,4.8-.57,10.14,1.2,14.34,2.92,7,2.47,13.76,2.05,20.8-.34,5.57-.66,11.15-.75,16.72-.07,3.88.5,7.77.37,11.64-.42,11.92-1.05,23.84-1.55,35.77-.12,2.64-.28,10.06-.86,10.54-2.73,2.25-2.83,5.32-2.91,8.4-.08,3.28,0,6.56,0,9.85,0,6.81-.18,13.6-2.23,20.19-2.4,7.73-2.38,15.62-1.32,23.54.43,3.17,2.4,4.67,5.28,3.88,8.45-2.31,17-4.49,25.25-7.3,8.13-2.75,16-6.23,24-9.37,2.92-1.15,5.83-2.3,8.78-3.34,2.52-.88,5.15-1.45,7.63-2.44,1.94-.77,3.66-2.06,5.57-2.93,2.26-1,5.08.11,5.4,2,.62,3.75-1.2,6-5,6.32a12.88,12.88,0,0,0-3.39.65c-9.9,3.79-19.78,7.66-29.69,11.46-2.24.87-4.71,1.26-6.82,2.36-5.19,2.69-10.42,5-16.41,5.17a8.72,8.72,0,0,0-2.43.55c-2.8.87-5.09,3.42-8.51,2.39-.56-.17-1.49,1-2.28,1.45-1.43.87-2.78,2.05-4.34,2.48-2.79.79-5.25,1.43-6.18,4.81-2.24,8.12-4.37,16.31-7.3,24.2-3,8.16-6.55,16-5.91,25.08.22,3.13-.76,6.4-1.52,9.52-2.1,8.62-4.64,17.14-6.5,25.81-1.91,8.87-3.24,17.87-4.81,26.81-.52,2.91-1.07,5.82-1.49,8.74-1.07,7.52-2.18,15-3.08,22.57-.43,3.56.24,7.39-.8,10.72a52.92,52.92,0,0,0-2.44,14.84c-.22,9.37-1.25,18.71-1.8,28.07-.92,15.72.5,31.35,3.1,46.78,1.48,8.77,4.88,17.23,7.63,25.75,1.49,4.61,2.77,9.5,5.33,13.48A111.68,111.68,0,0,0,215,721.41c1.59,1.5,2.58,3.7,4.28,5a185.89,185.89,0,0,1,23.32,20.92c4.06,4.43,8.3,8.7,12.09,13.34,4.34,5.3,8.28,10.91,12.38,16.4,1.44,1.92,2.94,3.81,4.24,5.83,2.39,3.72,4.38,7.73,7,11.27,4.82,6.5,9.24,13,10.13,21.43a48.88,48.88,0,0,0,3.14,12.9,47.2,47.2,0,0,1,3.46,15.7,11.67,11.67,0,0,0,.43,2.82c1.9,6.44,6.23,6.07,10.88,3.44,2.67-1.5,5.24-3.25,8-4.5,3.92-1.75,8.14-2.88,12-4.75q17.25-8.34,34.27-17.13c3.52-1.82,6.64-4.4,10-6.55,3.71-2.36,7.41-4.75,11.24-6.91,6.21-3.52,13-5.93,18-11.61,3.29-3.74,7.45-6.79,11.49-9.78,3.36-2.49,5.19-5.44,5.08-9.63-.37-14.1-2.86-27.68-10.28-39.92-4.42-7.28-7.8-15.22-14.08-21.33-3.84-3.72-7-8.09-10.74-12-5.25-5.48-10.91-10.58-16-16.18-3.32-3.64-6-7.9-8.94-11.86-1.78-2.35-3.89-4.49-5.4-7-10.75-17.84-14.21-37.58-14.68-58-.12-5.26.69-10.53.75-15.8.11-10.56,0-21.09,2.43-31.52.91-3.93.11-8.23,2.84-11.77.34-.44.25-1.22.32-1.85.42-3.71.68-7.44,1.26-11.12,1.23-7.7,2.49-15.39,4-23,1.14-5.8,2.81-11.49,4-17.28,1.12-5.47,1.83-11,2.88-16.49,1.28-6.62,1.56-13.76,4.37-19.68,4.82-10.15,4.57-21.23,7.66-31.61a71.47,71.47,0,0,0,2.49-8.45c.84-5.1,1.26-10.26,1.87-15.39.89-7.4,1.77-14.8,2.7-22.19.81-6.53.34-13.18,3.45-19.44,1.35-2.71.88-6.33,1.21-9.54a32.54,32.54,0,0,1,.32-3.72c1.58-7.11,3.44-14.17,4.84-21.32,3.17-16.27,6.63-32.52,8.94-48.92,1.1-7.86.15-16.07-.39-24.08-.74-10.83-1.91-21.64-3-32.44s-1.91-21.94-3.79-32.75c-1.58-9.08-2.19-18.45-6.42-27-2.26-4.6-3.42-9.72-5.29-14.53-1.11-2.84-2.63-5.51-3.95-8.27s-2.57-5.26-3.72-7.95c-1.41-3.29-24.68-47.53-28-51-3.69-3.89-28.22-26.47-32.9-29.33-5-3.07-9.47-3.48-14.6-1-2.25,1.07-14.85,3.6-18.49,4.86-5.27,1.82-24,8.45-27.84,10.33-6.24,3-39.53,18.56-44.24,21-10.75,5.51-21.17,11.65-31.76,17.49-3.47,1.92-4.22,4.53-2,7.84a33.09,33.09,0,0,0,3.86,5.31,51.35,51.35,0,0,1,9.73,12.95c.75,1.45,2.45,2.4,3.22,3.85,3.31,6.21,6.5,12.37,10.91,18,5.1,6.54,8.72,14.21,13.13,21.29,1.55,2.49,12.65,22.55,13.54,29.29.59,4.46,8.7,7.74,12.68,6,1.41-.61,2.95-.92,4.39-1.46,3.39-1.25,6.79-2.49,10.13-3.87,2.48-1,4.8-2.49,7.32-3.39,6.27-2.23,12.62-4.22,18.91-6.37,2.76-.94,25.39-9.61,25.74-9.83Z"/><path class="cls-1" d="M314.77,179.61c-4.95,3.14-38,18.41-40.77,19.35-6.29,2.15-12.64,4.14-18.91,6.37-2.52.9-4.84,2.36-7.32,3.39-3.34,1.38-6.74,2.62-10.13,3.87-1.44.54-3,.85-4.39,1.46-4,1.72-12.09-1.56-12.68-6-.89-6.74-12-26.8-13.54-29.29-4.41-7.08-8-14.75-13.13-21.29-4.41-5.66-7.6-11.82-10.91-18-.77-1.45-9.06-12.94-13-16.8a33.09,33.09,0,0,1-3.86-5.31c-2.22-3.31-1.47-5.92,2-7.84,10.59-5.84,21-12,31.76-17.49,4.71-2.41,38-17.92,44.24-21C248,69.13,266.75,62.5,272,60.68c3.64-1.26,16.24-3.79,18.49-4.86,5.13-2.46,43.81,26.46,47.5,30.35,3.33,3.51,26.6,47.75,28,51,1.15,2.69,2.46,5.31,3.72,7.95s2.84,5.43,3.95,8.27c1.87,4.81,3,9.93,5.29,14.53,4.23,8.57,4.84,17.94,6.42,27,1.88,10.81,2.66,21.82,3.79,32.75s2.29,21.61,3,32.44c.54,8,1.49,16.22.39,24.08-2.31,16.4-5.77,32.65-8.94,48.92-1.4,7.15-9,47.49-9.82,54-.93,7.39-1.81,14.79-2.7,22.19-.61,5.13-1,10.29-1.87,15.39-.48,2.87-13.24,53.12-14.52,59.74-1.05,5.48-1.76,11-2.88,16.49-1.18,5.79-2.85,11.48-4,17.28-1.5,7.64-2.76,15.33-4,23-.58,3.68-.84,7.41-1.26,11.12-.07.63-5.48,34.58-5.59,45.14-.06,5.27-.87,10.54-.75,15.8.47,20.44,3.93,40.18,14.68,58,1.51,2.5,3.62,4.64,5.4,7,3,4,5.62,8.22,8.94,11.86,5.11,5.6,10.77,10.7,16,16.18,3.71,3.87,6.9,8.24,10.74,12,6.28,6.11,9.66,14,14.08,21.33,7.42,12.24,9.91,25.82,10.28,39.92.11,4.19-1.72,7.14-5.08,9.63-4,3-8.2,6-11.49,9.78-5,5.68-11.75,8.09-18,11.61-3.83,2.16-7.53,4.55-11.24,6.91-3.36,2.15-6.48,4.73-10,6.55q-17,8.8-34.27,17.13c-3.86,1.87-8.08,3-12,4.75-2.79,1.25-5.36,3-8,4.5-4.65,2.63-9,3-10.88-3.44a11.67,11.67,0,0,1-.43-2.82,47.2,47.2,0,0,0-3.46-15.7,48.88,48.88,0,0,1-3.14-12.9c-.89-8.42-19.94-36.61-21.38-38.53-4.1-5.49-8-11.1-12.38-16.4-3.79-4.64-8-8.91-12.09-13.34-7.08-7.75-26-24.45-27.6-26a111.68,111.68,0,0,1-17.25-20.25c-2.56-4-3.84-8.87-5.33-13.48-2.75-8.52-6.15-17-7.63-25.75-2.6-15.43-4-31.06-3.1-46.78.55-9.36,1.58-18.7,1.8-28.07a52.92,52.92,0,0,1,2.44-14.84c1-3.33.37-7.16.8-10.72.9-7.54,2-15,3.08-22.57.42-2.92,1-5.83,1.49-8.74,1.57-8.94,2.9-17.94,4.81-26.81,1.86-8.67,4.4-17.19,6.5-25.81.76-3.12,1.74-6.39,1.52-9.52C203.5,459,207,451.15,210.05,443c2.93-7.89,5.06-16.08,7.3-24.2.93-3.38,3.39-4,6.18-4.81,1.56-.43,2.91-1.61,4.34-2.48.79-.48,1.72-1.62,2.28-1.45,3.42,1,5.71-1.52,8.51-2.39a8.72,8.72,0,0,1,2.43-.55c6-.13,11.22-2.48,16.41-5.17,2.11-1.1,4.58-1.49,6.82-2.36,9.91-3.8,19.79-7.67,29.69-11.46a12.88,12.88,0,0,1,3.39-.65c3.81-.32,5.63-2.57,5-6.32-.32-1.93-3.14-3.08-5.4-2-1.91.87-3.63,2.16-5.57,2.93-2.48,1-5.11,1.56-7.63,2.44-2.95,1-5.86,2.19-8.78,3.34-8,3.14-15.9,6.62-24,9.37-8.29,2.81-16.8,5-25.25,7.3-2.88.79-4.85-.71-5.28-3.88-1.06-7.92-1.08-15.81,1.32-23.54,2.05-6.59,2.23-13.38,2.23-20.19,0-3.29-.05-6.57,0-9.85.08-3.08,3.65-16.3,3.77-18.94.5-11.93,1.13-23.85,1.55-35.77.13-3.87-.44-7.76-.37-11.64.09-5.57-2-47.06-2.5-51.86-.38-3.82-.16-6,4.64-7.41,7.4-2.18,14.24-6.23,21.38-9.33a32.81,32.81,0,0,1,6.49-1.86c9.89-2,18.37-7.09,27.25-11.52,4.21-2.1,8.51-5,13.75-5.27,3.13-.16,6.18-1.71,9.29-2.51a54.43,54.43,0,0,0,6.79-3.25C318.6,183.68,318.6,183.68,314.77,179.61ZM260.57,532c2.39-.76,5.34-.9,7-2.44,2.36-2.16,5-2.43,7.71-3,1.55-.32,3.1-.62,4.61-1.09,5.68-1.75,11.3-3.73,17-5.31,3.21-.89,6.8-.64,9.83-1.87a17.41,17.41,0,0,1,8.24-1c2.44.16,5.5.68,7-2.12,1.26-2.29,0-4.43-1.42-6.29-1.62-2.07-3.4-1.41-5.31-.35-5.57,3.1-11.22,6-17.79,6.36a9.69,9.69,0,0,0-2.33.89c-1.48.51-3,1-4.48,1.44-2.62.7-5.29,1.22-7.89,2-3.1.92-6.13,2.08-9.21,3.06-2.06.66-4.17,1.15-6.23,1.8a26.22,26.22,0,0,1-2.88,1.2c-4.15.74-8.19,1.13-12.22,3.18-5.85,3-12.39,4.58-18.64,6.75-4.25,1.48-8.7,2.54-12.74,4.47s-7.56,2.12-11.38,0a3.82,3.82,0,0,0-2.28-.64c-2.21.49-4.86,4.18-4.46,6,.49,2.2,4.5,4.18,7.13,3.64a28.86,28.86,0,0,1,3.1-.15,13.19,13.19,0,0,0,3-.51c2-.67,3.85-1.54,5.8-2.22,2.27-.79,4.59-1.42,6.86-2.21,3.94-1.37,7.83-2.92,11.8-4.19,4.55-1.46,9.59-1.74,13.28-5.26C255.67,532.29,257.49,530.47,260.57,532ZM291,462.91c4.38.69,8.31.36,10-4.58.42-1.21,1-3.29.44-3.72a5.37,5.37,0,0,0-4.17-1c-5.13,1.38-9.78,4.63-15.45,4-.28,0-.58.25-.88.33-3.4.95-6.78,2-10.21,2.8-4.95,1.22-10,2-14.89,3.52-7.5,2.33-14.83,5.23-22.3,7.67-3.33,1.08-6.62,2-10.18-.44-3-2-8.71,1.58-9,5.06-.23,2.82.11,5.76,2.93,6.72,2.57.87,5.5,1.55,8.3-.56a25.62,25.62,0,0,1,8-4.31c6.74-1.94,13.69-3.13,20.19-5.93a13.79,13.79,0,0,1,1.8-.53c6.67-1.85,13.39-3.52,20-5.6C280.62,464.74,285.41,462.1,291,462.91ZM266.89,729l-.35-.82c-1,.3-1.9.58-2.83.92s-1.94.85-2.94,1.17c-2.65.83-3,2.59-2.1,4.93s3.56,3.65,5.6,2.59c7-3.61,13.93-7.3,20.87-11,7.87-4.21,15.68-8.56,23.61-12.66,2.69-1.38,5.77-2,8.51-3.27,3.05-1.46,5.83-3.53,8.89-5,4.89-2.33,9.94-4.34,14.89-6.57,2.3-1,3.65-3.78,2.86-5.48-1.68-3.63-2.48-4-6-2.64-.39.15-.89.09-1.21.31-3.44,2.4-8.15,3-10.19,7.41a5.11,5.11,0,0,1-2.56,2.18c-5.61,2.42-11.29,4.69-16.94,7a7.59,7.59,0,0,1-2.34.92c-3.49.05-5.79,2.23-8.19,4.28a8.63,8.63,0,0,1-1.75,1.3c-3.38,1.58-6.88,2.92-10.17,4.67-4.31,2.29-8.44,4.91-12.69,7.33C270.23,727.52,268.53,728.23,266.89,729Zm57.22-61.86c-2.3.58-4.06,1-5.78,1.47s-3.37,1.15-5,1.78c-3.2,1.21-6.47,2.26-9.55,3.71-5.83,2.75-11.52,5.77-17.31,8.6-4.52,2.21-9.12,4.22-13.62,6.46-4.82,2.4-9.46,5.17-14.37,7.37-4.14,1.86-8.31,4-13.2,3.25-.64-.1-2.08,1.31-2.14,2.1-.09,1.28.25,3.08,1.12,3.84,2.07,1.79,10.23,1,12.49-.42,3-1.85,6.36-3.24,9.56-4.83,4.43-2.21,8.94-4.29,13.29-6.66,3.92-2.13,7.49-6,11.54-6.54,5.38-.66,9.1-3.85,13.44-5.94a65.49,65.49,0,0,1,15.12-5,5.83,5.83,0,0,0,3.58-2.78C324,672.11,323.77,670.14,324.11,667.17Zm-86.5-332.76c4.57-.13,8.22-.81,11-4a4.76,4.76,0,0,1,2-1c6.58-2.28,13.2-4.48,19.75-6.85,1.74-.64,3.25-1.87,4.93-2.72a10,10,0,0,1,2.93-1c2.27-.37,4.57-.64,6.87-.81a4,4,0,0,0,4.05-4c0-2.23-.42-5.23-1.87-6.48-1.64-1.41-4.37-1.07-6.49,1.12a19.35,19.35,0,0,1-6.3,3.85c-3.65,1.57-7.52,2.62-11.19,4.15-7.45,3.11-14.65,6.87-22.93,7.46-.93.06-2.44,1.21-2.53,2A70.59,70.59,0,0,0,237.61,334.41Zm72.66,256a11.93,11.93,0,0,0-2.36.51c-5.19,2.13-10.32,4.44-15.54,6.49-6.23,2.45-12.47,4.93-18.86,6.92A4.47,4.47,0,0,0,270.1,609a7.1,7.1,0,0,0,1.66,4.92c3.18,3.05,7.05,1.25,10.26.06,4.45-1.64,8.36-4.86,12.86-6.28a38.71,38.71,0,0,0,12.5-6.84,19.42,19.42,0,0,1,2.77-1.25c.65-.35,1.66-.88,1.68-1.37C312,595.6,313.6,592.69,310.27,590.44ZM245.91,269.93c-1.27,0-2.54,0-3.8,0-2-.08-2.81.95-3,2.85-.38,4.73.86,5.9,5.42,4.11,5.26-2.07,11.2-2.43,15.81-6.19a7.41,7.41,0,0,1,2.33-.83c5.75-2,11.56-3.92,17.23-6.18,4.83-1.93,9.43-4.42,14.23-6.44,4.36-1.85,8.9-3.28,13.27-5.12,3-1.27,5.76-3.56,8.86-4.19A6,6,0,0,0,321,244c.46-1-.22-2.61-.39-3.93a16.66,16.66,0,0,0-2.82.94c-3.21,1.71-6.31,3.65-9.58,5.25-3.8,1.86-7.84,3.24-11.57,5.23-4,2.17-7.4,5.85-12.66,5.1-.78-.11-1.69.69-2.54,1.06-3.27,1.41-6.49,2.93-9.81,4.18-3.73,1.4-7.82,2.07-11.28,3.93A33.15,33.15,0,0,1,245.91,269.93Zm50.73,285.13c1.2-.46,2.37-1.38,3.29-1.18,2.84.62,5.12-.3,7.71-1.33,3-1.2,6.49-1.36,9.78-1.92,2.28-.39,4.05-2.5,3.21-4.8-.37-1-2.62-2-3.91-1.83-6.22.6-12.42,1.48-18.59,2.46a6.44,6.44,0,0,0-3.23,2C292.21,551.36,295.39,552.87,296.64,555.06Zm26.93,11.54-3.82.63c-3.3.56-6.58,1.32-9.9,1.63-2.44.23-4.94-.19-7.4-.19-.51,0-1.48.66-1.44.88.34,1.91.49,4,1.43,5.6s2.47,3,4.76,1.49c.7-.45,1.83-.23,2.76-.35,3.26-.41,6.61-.47,9.76-1.33C325.74,573.32,325.69,573.14,323.57,566.6Zm36.51-325.38c4.83.46,8.37-2.05,11.86-4.23,2-1.26,3.55-3.41,5-5.39a3.65,3.65,0,0,0,0-3.13c-.18-.4-1.84-.33-2.74-.12a27.66,27.66,0,0,0-3.77,1.41c-3.4,1.34-6.69,3.22-10.22,3.86-3.15.56-4.63,1.92-4.61,4.8C355.58,241.72,358.16,241.34,360.08,241.22Zm8.36,67-.62-1.32c-2.51-.62-5.44-2.4-7.43-1.65-4.91,1.86-9.42,4.8-14,7.48a2.84,2.84,0,0,0-.92,2.61,2.87,2.87,0,0,0,2.43,1.36c4.8-.75,9.74-1.25,14.28-2.84C364.64,313,366.38,310.14,368.44,308.19ZM330.26,452.9c-3.33.44-6,.61-8.54,1.16-2.72.59-3.52,2.91-2.05,5.24,1.17,1.86,8.42,3.12,10.5,1.58a7.62,7.62,0,0,1,8.28-.78c2.42,1.06,2.77-1.36,3.48-2.63.26-.44-.65-2.22-1.29-2.39C337,454.14,333.3,453.51,330.26,452.9Zm25.37-280.63-.1-.57c-1.46.33-3.46.18-4.26,1.08-1.09,1.23-2,3.53-1.61,4.9.58,1.82,1.85,4.19,4.7,3.75a72.15,72.15,0,0,0,8.83-1.57,4.51,4.51,0,0,0,3.28-5.83c-.91-2.38-3.43-3.16-6.51-2.28A25.75,25.75,0,0,1,355.63,172.27ZM346.7,383.41l-.15-.62c-2.45.53-5.05.72-7.29,1.72-1.24.55-2.17,2.37-2.64,3.81-.22.67.87,2.4,1.64,2.59,1.11.28,2.48-.32,3.7-.69.78-.23,1.44-.89,2.22-1.05,2.34-.47,4.78-.58,7.06-1.25a7,7,0,0,0,3.28-2.45c.31-.4-.35-2.18-1-2.51a7.21,7.21,0,0,0-3.6-.41A17.44,17.44,0,0,0,346.7,383.41Z"/><path d="M240.42,539.43c-4,1.27-7.86,2.82-11.8,4.19-2.27.79-4.59,1.42-6.86,2.21-1.95.68-3.84,1.55-5.8,2.22a13.19,13.19,0,0,1-3,.51,28.86,28.86,0,0,0-3.1.15c-2.63.54-6.64-1.44-7.13-3.64-.4-1.77,14.15-3.47,18.12-5.36s8.49-3,12.74-4.47c6.25-2.17,26.71-9.19,30.86-9.93a26.22,26.22,0,0,0,2.88-1.2c2.06-.65,4.17-1.14,6.23-1.8,3.08-1,6.11-2.14,9.21-3.06,2.6-.78,5.27-1.3,7.89-2,1.52-.4,3-.93,4.48-1.44a9.69,9.69,0,0,1,2.33-.89c6.57-.34,25.78-2,24.52.28-1.52,2.8-4.58,2.28-7,2.12a17.41,17.41,0,0,0-8.24,1c-3,1.23-6.62,1-9.83,1.87-5.73,1.58-11.35,3.56-17,5.31-1.51.47-10,1.94-12.32,4.1C265.91,531.13,245,538,240.42,539.43Z"/><path d="M291,462.91c-5.55-.81-10.34,1.83-15.41,3.43-6.59,2.08-13.31,3.75-20,5.6a13.79,13.79,0,0,0-1.8.53c-6.5,2.8-13.45,4-20.19,5.93a25.62,25.62,0,0,0-8,4.31c-2.8,2.11-5.73,1.43-8.3.56-2.82-1-3.16-3.9-2.93-6.72.28-3.48,6-7.09,9-5.06,3.56,2.45,6.85,1.52,10.18.44,7.47-2.44,14.8-5.34,22.3-7.67,4.86-1.51,9.94-2.3,14.89-3.52,3.43-.84,6.81-1.85,10.21-2.8.3-.08.6-.36.88-.33,5.67.67,10.32-2.58,15.45-4a5.37,5.37,0,0,1,4.17,1c.52.43,0,2.51-.44,3.72C299.27,463.27,295.34,463.6,291,462.91Z"/><path d="M271.81,726.62c4.25-2.42,8.38-5,12.69-7.33,3.29-1.75,21.67-10.85,22.45-11.17,5.65-2.33,11.33-4.6,16.94-7,1-.42,18.33-10.89,20-7.26.79,1.7-.56,4.45-2.86,5.48-5,2.23-10,4.24-14.89,6.57-3.06,1.46-5.84,3.53-8.89,5-2.74,1.31-5.82,1.89-8.51,3.27-7.93,4.1-15.74,8.45-23.61,12.66-6.94,3.71-13.89,7.4-20.87,11-2,1.06-4.68-.28-5.6-2.59s4.05-5.74,5-6.1S270.23,727.52,271.81,726.62Z"/><path d="M323.25,673.62a5.83,5.83,0,0,1-3.58,2.78,65.49,65.49,0,0,0-15.12,5c-4.34,2.09-21.06,10.35-25,12.48-4.35,2.37-8.86,4.45-13.29,6.66-3.2,1.59-6.52,3-9.56,4.83-2.26,1.38-10.42,2.21-12.49.42-.87-.76-1.21-2.56-1.12-3.84.06-.79,1.5-2.2,2.14-2.1,4.89.74,9.06-1.39,13.2-3.25,4.91-2.2,9.55-5,14.37-7.37,4.5-2.24,9.1-4.25,13.62-6.46,5.79-2.83,11.48-5.85,17.31-8.6,3.08-1.45,6.35-2.5,9.55-3.71,1.66-.63,3.33-1.26,5-1.78S324,672.11,323.25,673.62Z"/><path d="M237.61,334.41a70.59,70.59,0,0,1,.13-8.26c.09-.78,1.6-1.93,2.53-2,8.28-.59,15.48-4.35,22.93-7.46,3.67-1.53,7.54-2.58,11.19-4.15a19.35,19.35,0,0,0,6.3-3.85c2.12-2.19,4.85-2.53,6.49-1.12,1.45,1.25,1.87,4.25,1.87,6.48a4,4,0,0,1-4.05,4c-2.3.17-4.6.44-6.87.81a10,10,0,0,0-2.93,1c-1.68.85-3.19,2.08-4.93,2.72-6.55,2.37-13.17,4.57-19.75,6.85a4.76,4.76,0,0,0-2,1C245.83,333.6,242.18,334.28,237.61,334.41Z"/><path d="M310.27,590.44c3.33,2.25,1.71,5.16,1.56,7.77,0,.49-1,1-1.68,1.37a19.42,19.42,0,0,0-2.77,1.25,38.71,38.71,0,0,1-12.5,6.84c-4.5,1.42-8.41,4.64-12.86,6.28-3.21,1.19-7.08,3-10.26-.06A7.1,7.1,0,0,1,270.1,609a4.47,4.47,0,0,1,3.41-4.61c6.39-2,12.63-4.47,18.86-6.92,5.22-2.05,10.35-4.36,15.54-6.49A11.93,11.93,0,0,1,310.27,590.44Z"/><path d="M245.91,269.93a33.15,33.15,0,0,0,14.39-4.13c3.46-1.86,7.55-2.53,11.28-3.93,3.32-1.25,6.54-2.77,9.81-4.18.85-.37,1.76-1.17,2.54-1.06,5.26.75,8.61-2.93,12.66-5.1,3.73-2,7.77-3.37,11.57-5.23,3.27-1.6,6.37-3.54,9.58-5.25a16.66,16.66,0,0,1,2.82-.94c.17,1.32.85,2.88.39,3.93a6,6,0,0,1-4.65,3.89c-3.1.63-5.84,2.92-8.86,4.19-4.37,1.84-8.91,3.27-13.27,5.12-4.8,2-9.4,4.51-14.23,6.44-5.67,2.26-11.48,4.14-17.23,6.18a7.41,7.41,0,0,0-2.33.83c-4.61,3.76-10.55,4.12-15.81,6.19-4.56,1.79-5.8.62-5.42-4.11.15-1.9.95-2.93,3-2.85C243.37,270,244.64,269.93,245.91,269.93Z"/><path d="M294.9,548.51a6.44,6.44,0,0,1,3.23-2c6.17-1,12.37-1.86,18.59-2.46,1.29-.12,3.54.84,3.91,1.83.84,2.3-.93,4.41-3.21,4.8-3.29.56-14.65,3.87-17.49,3.25C299,553.68,292.21,551.36,294.9,548.51Z"/><path d="M323.57,566.6c2.12,6.54,2.17,6.72-3.85,8.36-3.15.86-6.5.92-9.76,1.33-.93.12-2.06-.1-2.76.35-2.29,1.48-3.87,0-4.76-1.49s-1.09-3.69-1.43-5.6c0-.22.93-.88,1.44-.88,2.46,0,5,.42,7.4.19,3.32-.31,6.6-1.07,9.9-1.63Z"/><path d="M360.08,241.22c-1.92.12-4.5.5-4.53-2.8,0-2.88,1.46-4.24,4.61-4.8,3.53-.64,6.82-2.52,10.22-3.86a27.66,27.66,0,0,1,3.77-1.41c.9-.21,2.56-.28,2.74.12a3.65,3.65,0,0,1,0,3.13c-1.43,2-3,4.13-5,5.39C368.45,239.17,364.91,241.68,360.08,241.22Z"/><path d="M368.44,308.19c-2.06,1.95-3.8,4.79-6.24,5.64-4.54,1.59-9.48,2.09-14.28,2.84a2.87,2.87,0,0,1-2.43-1.36,2.84,2.84,0,0,1,.92-2.61c4.56-2.68,9.07-5.62,14-7.48,2-.75,4.92,1,7.43,1.65Z"/><path d="M330.26,452.9c3,.61,6.75,1.24,10.38,2.18.64.17,1.55,1.95,1.29,2.39-.71,1.27-1.06,3.69-3.48,2.63a7.62,7.62,0,0,0-8.28.78c-2.08,1.54-9.33.28-10.5-1.58-1.47-2.33-.67-4.65,2.05-5.24C324.28,453.51,326.93,453.34,330.26,452.9Z"/><path d="M355.63,172.27a25.75,25.75,0,0,0,4.33-.52c3.08-.88,5.6-.1,6.51,2.28a4.51,4.51,0,0,1-3.28,5.83,72.15,72.15,0,0,1-8.83,1.57c-2.85.44-4.12-1.93-4.7-3.75-.44-1.37.52-3.67,1.61-4.9.8-.9,2.8-.75,4.26-1.08Z"/><path d="M346.7,383.41a17.44,17.44,0,0,1,3.24-.86,7.21,7.21,0,0,1,3.6.41c.63.33,1.29,2.11,1,2.51a7,7,0,0,1-3.28,2.45c-2.28.67-4.72.78-7.06,1.25-.78.16-1.44.82-2.22,1.05-1.22.37-2.59,1-3.7.69-.77-.19-1.86-1.92-1.64-2.59.47-1.44,1.4-3.26,2.64-3.81,2.24-1,4.84-1.19,7.29-1.72Z"/></svg>