<svg id="Ebene_1" data-name="Ebene 1" xmlns="http://www.w3.org/2000/svg" viewBox="0 0 595.28 841.89"><defs><style>.cls-1{fill:#fff;}</style></defs><path d="M45.57,667.11c1-15.13,1.09-30.38,3.2-45.35,1.27-8.93,0-17.53.21-26.27.2-7.32.37-14.64.64-22,.37-10,.12-20.07,1.39-29.95,2-15.66-1.17-31.16-.22-46.76.84-13.91,1.06-27.88,1-41.82,0-9.47-1.13-18.94-1.47-28.42-.13-3.5.63-7,.8-10.56.16-3.33.12-6.67.09-10-.14-12.61-.48-25.21-.39-37.82,0-7.51.58-15,1.22-22.54.51-6,1.73-12,2.19-18,.21-2.81-.92-5.7-1-8.57-.13-10.33.51-20.71-.2-31-.7-10-2.63-19.9-4.14-29.83-.85-5.57,3.87-13.49,9.43-14,7.21-.61,9.11-7,13.2-10.86,6.82-6.43,14.27-12.3,18.64-21.14,1.6-3.25,5.72-5.18,8.48-7.94,8.46-8.48,16.52-17.38,25.31-25.5,7-6.47,14.3-13.72,25.42-9.25,6.77,2.73,13.78,5.15,20,8.83,11,6.5,21.67,13.69,32.26,20.9,9.66,6.57,18.33,14.21,30.5,17,10.36,2.37,20,7.87,30.06,11.64,13.62,5.11,27.48,9.6,41,14.9,9.49,3.72,18.61,8.4,27.95,12.54,9.16,4.06,18.7,7.42,27.52,12.12,11.39,6.06,22.21,13.22,33.2,20q7.11,4.38,13.77,9.46c12.06,9.19,25.5,15.37,39.91,20.11,9.92,3.25,19,8.86,28.84,12.58,14.23,5.39,26.79,14.33,41.64,18.54,7.47,2.13,14.2,6.88,21.25,10.49,4.49,2.3,8.75,5.33,13.5,6.78,3,.92,29.81,16.08,32.77,19.75a4.39,4.39,0,0,1,.21,3.67c-1.32,3.31-33.51,25.57-40.32,30.94a13.23,13.23,0,0,1-2.66,1.64c-7.49,3.4-15.14,6.5-22.44,10.26-4.33,2.23-8,5.72-12.17,8.27-5.88,3.6-12,6.86-18,10.24-7.07,4-14,8.23-21.27,11.82-7.53,3.71-15.6,6.36-23,10.29-5,2.65-9.17,6.85-13.89,10.11a146.48,146.48,0,0,1-13,8.15c-10.61,5.8-21.42,11.23-32,17.08-14.05,7.77-27.64,16.43-42,23.55C328.4,538.58,312.94,544.23,298,551c-6.24,2.83-11.89,7-18,10.13-13.78,7.18-27.84,13.84-41.49,21.24-12.36,6.7-24.25,14.27-36.52,21.14-9.45,5.3-19.35,9.81-28.74,15.22-12.8,7.38-25.59,14.85-37.82,23.13-6.6,4.47-12.19,10.52-17.89,16.2-7.79,7.75-13.46,18.58-24.47,21.78-9.23,2.67-19.34,2.34-29.07,3.21-2,.18-4-.39-5.95-.29-9.48.45-11.63-1.45-12-10.86,0-1.59,0-3.19,0-4.78ZM148.69,186.93c.54,5.11,1.6,9.52,1.37,13.87-.75,14.06-2.33,28.09-2.86,42.16-.25,6.74,1.49,13.53,1.74,20.32.37,10.24.24,20.51.28,30.77q.06,18.17,0,36.33c0,11.5-.22,23-.06,34.48.28,19.28.86,38.56,1.15,57.84.06,3.33-1,6.68-.93,10,.15,8.6.65,17.2,1,25.8.38,10.22,1,20.45,1,30.68,0,11-.69,22-.8,33-.06,5.93.85,11.87.66,17.79-.23,6.88-1.48,13.72-1.78,20.6-.62,14.1-.84,28.22-1.35,42.33-.18,5,19-2.45,20-3.05q10.14-6.48,20.63-12.4c4.69-2.67,9.64-4.88,14.4-7.43,2.75-1.46,5.29-3.31,8.05-4.76,11.52-6.08,23.15-12,34.64-18.14,11.74-6.29,23.32-12.89,35.08-19.15,6.18-3.28,13-5.48,18.81-9.29,9.4-6.18,34.09-15.62,36-16.65,5.14-2.85,10.23-5.81,15.28-8.83,2.32-1.38,4.4-3.19,6.77-4.48,7.56-4.11,56-28.68,62.2-27.81,1.29.18,2.85-1,4.17-1.82,4.83-2.87,9.55-5.94,14.43-8.72q13.61-7.77,27.38-15.25c3.91-2.13,8-3.84,12-5.8,3.78-1.87,7.39-4.09,11.13-6q10.26-5.24,20.08-11.29c1.66-1,3.6-1.64,5.19-2.75,7.45-5.24,14.84-10.58,22.25-15.87,4.44-3.18,9.12-6.08,13.27-9.6,3.7-3.13,3.46-7.48-.65-9.64q-25.62-13.44-51.54-26.28c-7.75-3.83-16-6.68-23.71-10.57-3.78-1.9-24-11.78-27.07-13.05-12.12-5-24.16-10.19-35.95-15.9A149,149,0,0,1,392,307c-7.44-5.08-14.24-11.13-21.87-15.87-6.51-4.05-13.79-6.84-20.74-10.18-8.18-3.93-16.55-7.51-24.48-11.88-7.09-3.89-13.67-8.72-20.57-13-1.22-.76-2.94-.72-4.41-1.1-9.12-2.33-18.51-3.93-27.28-7.19-13-4.81-24.63-12.88-38.69-15-2-.3-3.91-1.64-5.86-2.5-5.53-2.46-11.14-4.75-16.55-7.46a77.31,77.31,0,0,1-10.06-6.3c-2.49-1.76-4.41-4.78-7.1-5.7-3.93-1.33-21.21-13.48-25.44-17.47C163,187.75,155.76,188,148.69,186.93ZM134.61,447.14c-2.47,1.83-4.77,3-6.41,4.84-6.17,6.8-12.48,13.51-18.08,20.77C102,483.23,94.21,494,86.87,505c-5.66,8.49-9.12,18.31-17.32,25.26a17.66,17.66,0,0,0-6.24,17.16c.9,5,4.1,6.78,7.82,3.66a103.41,103.41,0,0,0,12.16-12.59c2.41-2.84,4-6.38,6.14-9.44q13.06-18.35,26.31-36.55c1.14-1.57,21.84-26.32,23.52-26.73,2.77-.68-.66,7.28,2.27,7.23-.29,2.53,0,5.81-1.26,7.67-6.1,9-25,32.82-31.53,41.48-9.89,13.09-19.92,26.06-29.92,39.06-3.19,4.15-6.48,8-12.59,7.55-3.83-.28-4.61,2.57-4.26,5.66.81,7.14,3.67,21.79,4.48,22.12,4.33-3.51,9.17-6.56,12.88-10.63,5.57-6.1,10.37-12.89,15.45-19.42,4.48-5.76,8.89-11.58,13.35-17.35,5.2-6.73,28.26-37.27,34-44.62l5.08,6.68c-1,1.38-19.71,26.53-20.66,27.78-5,6.63-10.22,13.12-15,19.89S102.22,573,97.3,580c-5,7.07-10.26,14-15.76,20.72-2.64,3.23-6,8.07-9.21,8.25-12.24.68-10.3,8.83-10.18,16.41,0,1.8-.32,3.66,0,5.37.83,3.95,2,7.83,3,11.74,1.16.26,9.86-7.82,13.2-12.27,5.34-7.12,10.14-14.66,15.63-21.65,6.32-8,13.27-15.6,19.7-23.56,4.5-5.57,21.68-8.88,22.06-11.06a83.5,83.5,0,0,0,1-14.24c0-19.24-.7-38.52,3.35-57.54.36-1.65-.36-3.5-.42-5.27-.31-9.46-.79-18.92-.79-28.38C139,461.31,138.57,454.35,134.61,447.14ZM65.51,303.79c-.17,4.4-.61,8.79-.44,13.17s2.87,10.06,1.08,13.27c-5,8.94-2.26,17.28-1.19,27.4,3-1.68,5.42-2.35,6.74-3.94,2.29-2.74,3.52-6.37,5.86-9.05,7.41-8.51,13.17-18.06,19.31-27.46,7.11-10.9,16.28-20.47,24.82-30.39.86-1,13.73-4.82,13.82-5.91.86-10-1.4-20.29.21-30,1.28-7.73,1-15.16.59-22.7a9.81,9.81,0,0,0-3.41-6.28c-.74-.61-4.28.83-5.41,2.25-6.5,8.18-12.85,16.5-18.85,25.06-2.68,3.83-4.1,8.54-6.67,12.46-5.59,8.5-11.75,16.62-17.29,25.14-3.58,5.51-6.48,11.46-9.88,17.55Zm70.75,25c-.41-12-.72-22.56-1.17-33.11a41.23,41.23,0,0,0-1-5.76c-2,.91-4.27,1.54-6,2.82a56.05,56.05,0,0,0-6.29,5.86,44.88,44.88,0,0,0-5.66,6.06C108.53,315.74,101.27,327,93.69,338c-4,5.79-8.56,11.14-12.61,16.87C73.72,365.34,61.93,373.68,64.59,389c.19,1.1-.43,2.32-.51,3.49-.31,4.61-.82,9.22-.67,13.81A5.06,5.06,0,0,0,66.58,410a6.24,6.24,0,0,0,5.14-1.65c6.17-7.7,12-15.66,18-23.53,5.78-7.63,25.53-32.68,28-37.82,3.85-8,7.7-16.59,18.3-18C136.49,328.92,136.91,328.27,136.26,328.81Zm1.8,14.41c-5.95-1.44-8.69,2-11.25,5.21-2.43,3.1-4.18,6.74-6.61,9.85-5.52,7.06-11.31,13.92-16.88,20.94-1.85,2.34-3.6,4.77-5.27,7.25Q89.86,398.59,81.8,410.8c-3.34,5.09-5.64,11.54-12.64,12.51-6.12.85-6.36,5.24-6.48,9.44a74.86,74.86,0,0,0,1,15.91c.65,3.46.37,9.16,5.89,8.73a19.46,19.46,0,0,0,15.33-10.51c6.2-13.26,14.5-24.79,23.52-36.08,3.4-4.26,5.75-9.37,9-13.8,3.62-5,5.3-12.38,12.53-13.33,7-.93,8-5.46,8.08-10.74C138.2,363.14,138.06,353.34,138.06,343.22ZM65.55,474.59c0,4.36-1.29,26.27,1.27,34.61,2.57-1.32,5.53-2,7.14-3.83,7.22-8.31,14.26-16.8,21-25.54,5.56-7.23,10.5-14.93,15.84-22.34,3.57-5,7.71-9.54,11-14.7,2.79-4.45,5.66-7.37,11.45-6.4,1.42.23,4.6-1.71,4.63-2.72.31-10.31.31-20.65-.07-31-.08-1.93-2.59-5.53-3.34-5.37-3.07.65-6.86,1.72-8.6,4-4,5.22-6.76,11.35-10.34,16.9-2.59,4-5.67,7.7-8.56,11.5-3.64,4.76-8.29,9-10.76,14.33-4.46,9.57-10.92,17.69-16.6,26.39C76.88,474.52,66.39,474.54,65.55,474.59Zm.06,192.13c6.09-2,10.87-4.69,15.76-4.92,8.1-.38,13.49-5,19.35-9.37,13.15-9.73,23-22.59,33-35.27,1.25-1.59,1.32-4.35,1.34-6.58.1-7.51.1-15-.24-22.53-.09-2-19.34,12.47-25.22,19.93-9.63,12.26-19.26,24.52-29.17,36.56a12,12,0,0,1-7,4.07c-4.85.58-7.25,3-7.69,7.48C65.37,659.2,65.61,662.36,65.61,666.72ZM67,289.11l4-.64c6.57-1,8-6.87,10.93-11.41,4.78-7.45,9.86-14.7,14.61-22.17,5.33-8.37,10.36-16.93,15.69-25.3,1-1.6,3.36-2.45,4.15-4.09,3.24-6.77,8.63-11.15,15.18-14.14,4.74-2.17,5.35-6,5.07-10.36-.16-2.46-.92-4.92-.87-7.37.09-4.7-2.86-5.5-5.66-3.49-5.48,3.93-12.31,7.8-14.93,13.41-3,6.37-8.49,9.71-12.29,14.85-6.56,8.89-15.06,16.32-22.49,24.59-3.1,3.45-5.16,7.63-10,9.49-1.4.53-1.87,4.53-2,7C68.16,261.69,67,283.56,67,289.11Z"/><path class="cls-1" d="M149,187.08c7.07,1.06,14.29.82,20.27,6.46,4.23,4,21.51,16.13,25.44,17.47,2.69.92,4.61,3.93,7.1,5.7a78.81,78.81,0,0,0,10.06,6.3c5.4,2.71,11,5,16.55,7.45,2,.87,3.83,2.2,5.86,2.51,14.06,2.09,25.74,10.17,38.69,15,8.77,3.26,18.16,4.86,27.28,7.19,1.47.37,3.18.33,4.41,1.09,6.9,4.26,13.48,9.08,20.57,13,7.93,4.36,16.3,8,24.48,11.88,7,3.33,14.23,6.13,20.74,10.17,7.63,4.75,14.43,10.8,21.87,15.88a150.13,150.13,0,0,0,18.93,11.43c11.79,5.71,23.83,10.94,35.95,15.91,3.11,1.27,23.29,11.14,27.07,13,7.72,3.88,16,6.74,23.71,10.57q25.92,12.82,51.54,26.27c4.11,2.16,4.35,6.52.65,9.65-4.15,3.52-8.83,6.42-13.27,9.59-7.41,5.3-14.8,10.63-22.25,15.87a51.74,51.74,0,0,1-4.67,2.45q-12.64,7.05-25.26,14.12c-2.14,1.19-4.28,2.39-6.47,3.47-4,2-8.13,3.68-12,5.8q-13.79,7.47-27.38,15.25c-4.88,2.78-17.31,10.73-18.6,10.55-6.24-.87-54.64,23.69-62.2,27.81-2.37,1.28-16.91,10.45-22,13.3-1.87,1-26.57,10.48-36,16.65-5.8,3.82-12.63,6-18.81,9.3-11.76,6.25-23.34,12.86-35.08,19.15-11.49,6.15-23.12,12-34.64,18.13-2.76,1.46-5.3,3.3-8.05,4.77-4.76,2.54-9.71,4.76-14.4,7.42q-10.47,5.94-20.63,12.4c-.95.61-20.16,8.11-20,3.05.51-14.11.73-28.22,1.35-42.33.3-6.88,1.55-13.72,1.78-20.6.19-5.91-.72-11.86-.66-17.78.11-11,.82-22,.8-33,0-10.23-.64-20.45-1-30.68-.32-8.6-.82-17.2-1-25.8-.06-3.33,1-6.68.93-10-.29-19.29-.87-38.56-1.15-57.84-.16-11.49,0-23,.06-34.48q0-18.17,0-36.34c0-10.26.09-20.52-.28-30.77-.25-6.79-2-13.58-1.74-20.32.53-14.06,2.11-28.09,2.86-42.16C150.6,196.61,149.54,192.19,149,187.08Z"/><path class="cls-1" d="M134.92,447.29c4,7.22,4.34,14.92,4.35,22.08,0,9.46.47,18.18.79,27.64.06,1.76.78,3.62.42,5.27-4.06,19-3.32,38.29-3.35,57.54a82.63,82.63,0,0,1-1,14.16c-.2,1.15-17.58,5.58-22.07,11.13-6.43,8-13.38,15.51-19.7,23.56-5.49,7-10.29,14.53-15.63,21.66-3.34,4.44-12.39,12.33-13.25,12.08a157.19,157.19,0,0,1-3-16.92c-.12-7.59-2.06-15.74,10.18-16.41,3.24-.18,6.57-5,9.21-8.25,5.5-6.71,10.74-13.65,15.76-20.72,4.92-6.91,9.27-14.21,14.18-21.12s10-13.27,15-19.89c1-1.26,10.16-13.73,11.15-15.12-.26-1.3,1-13,1-13-5.71,7.35-25.3,31.54-30.5,38.27C104,555,99.57,560.85,95.09,566.61,90,573.14,85.21,579.93,79.64,586c-3.71,4.07-8.55,7.12-12.88,10.63-.62-.36-1.23-.73-1.84-1.1-.89-7-1.85-14-2.64-21-.35-3.09.43-5.95,4.26-5.67,6.11.45,9.4-3.4,12.59-7.54,10-13,20-26,29.92-39.06,6.54-8.67,24.53-31.3,30.63-40.27l-.11-16.12c-1.68.41-22.38,25.16-23.52,26.73q-13.26,18.21-26.31,36.56c-2.18,3.06-3.73,6.6-6.14,9.44A104.14,104.14,0,0,1,71.44,551.2c-3.72,3.11-6.92,1.28-7.82-3.67a17.64,17.64,0,0,1,6.24-17.15c8.2-7,11.66-16.77,17.31-25.26,7.35-11,15.17-21.73,23.26-32.22,5.6-7.25,11.9-14,18.08-20.76C130.15,450.33,132.45,449.12,134.92,447.29Z"/><rect x="139.25" y="464.84" width="2.84" height="17.5"/><path class="cls-1" d="M65.82,304c4.18.23,15.59-11.53,19.17-17,5.54-8.53,11.7-16.65,17.28-25.14,2.58-3.93,4-8.64,6.68-12.47,6-8.55,12.35-16.88,18.85-25.06,1.13-1.41,4.67-2.85,5.41-2.24a9.77,9.77,0,0,1,3.41,6.27c.39,7.55.69,15-.59,22.7-1.61,9.76-.29,20-.21,30,0,0-13,4.91-13.82,5.91-8.54,9.92-17.71,19.5-24.82,30.39-6.14,9.41-11.9,19-19.31,27.46-2.34,2.68-3.57,6.32-5.86,9.06-1.32,1.58-3.75,2.25-6.74,3.94-1.07-10.13.29-36.18.11-40.68S65.65,308.34,65.82,304Z"/><path class="cls-1" d="M136.57,329c.65-.54.23.1-.25.17-10.6,1.42-14.45,10-18.3,18-2.48,5.13-22.23,30.18-28,37.82-6,7.87-11.81,15.83-18,23.52a6.25,6.25,0,0,1-5.14,1.66,5.08,5.08,0,0,1-3.17-3.67c-.15-4.59.36-9.21.67-13.81.08-1.18,9.64-27.17,17-37.61C85.44,349.33,90,344,94,338.19c7.58-11,14.84-22.3,22.38-33.36a44.22,44.22,0,0,1,5.66-6.05,55.14,55.14,0,0,1,6.29-5.86c1.76-1.29,4-1.91,6-2.83a41.1,41.1,0,0,1,1,5.77C135.85,306.4,136.16,317,136.57,329Z"/><path class="cls-1" d="M138.37,343.38c0,10.12.14,19.91-.06,29.7-.12,5.29-1.05,9.82-8.08,10.74-7.23,1-8.91,8.37-12.53,13.34-3.23,4.43-5.58,9.53-9,13.8C99.7,422.24,91.4,433.78,85.2,447a19.51,19.51,0,0,1-15.33,10.52c-5.52.43-5.24-5.28-5.89-8.74a74.77,74.77,0,0,1-1-15.9c.12-4.2.36-8.59,6.48-9.44,7-1,9.3-7.42,12.64-12.52q6.58-10,13.29-19.94c2.39-3.56,4.72-7.17,7.36-10.53,5.84-7.42,11.94-14.62,17.75-22.05,2.43-3.11,4.18-6.74,6.61-9.85S132.42,341.94,138.37,343.38Z"/><path class="cls-1" d="M65.86,474.74c.84-.05,11.33-.07,14-4.13,5.68-8.69,12.14-16.82,16.6-26.38,2.47-5.3,7.12-9.57,10.75-14.34,2.9-3.79,6-7.49,8.57-11.49,3.58-5.56,6.35-11.69,10.33-16.91,1.74-2.28,5.54-3.34,8.61-4,.75-.15,3.26,3.44,3.33,5.37.39,10.32.39,20.65.08,31,0,1-3.21,2.95-4.63,2.71-5.79-1-8.66,2-11.45,6.41-3.24,5.15-7.38,9.74-11,14.69-5.34,7.41-10.28,15.12-15.84,22.35-6.71,8.73-13.75,17.22-21,25.53-1.61,1.85-4.57,2.51-7.14,3.83C64.57,501,65.86,479.11,65.86,474.74Z"/><path class="cls-1" d="M65.92,666.87c0-4.35-.24-7.52.06-10.63.44-4.51,2.84-6.89,7.69-7.48a11.92,11.92,0,0,0,7-4.07c9.9-12,19.54-24.3,29.17-36.55,5.88-7.47,25.13-21.95,25.22-19.93.34,7.5.34,15,.24,22.52,0,2.23-.09,5-1.34,6.58-10,12.69-19.81,25.54-33,35.28-5.86,4.34-11.25,9-19.35,9.36C76.79,662.18,72,664.88,65.92,666.87Z"/><path class="cls-1" d="M70.64,252.64c4.89-1.86,7-6,10-9.5,7.43-8.27,15.93-15.7,22.49-24.58,3.8-5.14,9.31-8.48,12.29-14.85,2.62-5.61,9.45-9.49,14.93-13.42,2.8-2,5.75-1.2,5.66,3.49-.05,2.45.71,4.91.87,7.38.28,4.36-.33,8.18-5.07,10.35-6.56,3-12,7.37-15.18,14.14-.79,1.65-3.14,2.49-4.15,4.09-5.33,8.37-10.36,16.93-15.69,25.3-4.75,7.47-9.83,14.73-14.62,22.18-2.91,4.54-4.35,10.39-10.92,11.41C70.17,288.8,69.24,253.17,70.64,252.64Z"/><polygon points="138.94 511.13 140.05 511.47 140.05 524.24 136.21 524.58 138.94 511.13"/></svg>